<?xml version="1.0" encoding="UTF-8"?>
<svg width="330px" height="330px" viewBox="0 0 330 330" version="1.1" xmlns="http://www.w3.org/2000/svg" xmlns:xlink="http://www.w3.org/1999/xlink">
    <!-- Generator: Sketch 52.6 (67491) - http://www.bohemiancoding.com/sketch -->
    <title>Group</title>
    <desc>Created with Sketch.</desc>
    <defs>
        <filter x="-6.0%" y="-5.9%" width="112.1%" height="111.8%" filterUnits="objectBoundingBox" id="filter-1">
            <feOffset dx="0" dy="2" in="SourceAlpha" result="shadowOffsetOuter1"></feOffset>
            <feGaussianBlur stdDeviation="2" in="shadowOffsetOuter1" result="shadowBlurOuter1"></feGaussianBlur>
            <feColorMatrix values="0 0 0 0 0   0 0 0 0 0   0 0 0 0 0  0 0 0 0.5 0" type="matrix" in="shadowBlurOuter1" result="shadowMatrixOuter1"></feColorMatrix>
            <feMerge>
                <feMergeNode in="shadowMatrixOuter1"></feMergeNode>
                <feMergeNode in="SourceGraphic"></feMergeNode>
            </feMerge>
        </filter>
    </defs>
    <g id="Page-1" stroke="none" stroke-width="1" fill="none" fill-rule="evenodd">
        <g id="Group" transform="translate(8.000000, 8.000000)">
            <circle id="Oval" stroke="#E4C580" stroke-width="15" fill="#F4E4C1" cx="157" cy="157" r="157"></circle>
            <g id="COLOURBOX1625620" filter="url(#filter-1)" transform="translate(57.000000, 55.000000)">
                <path d="M0.042609646,0.0799026502 C64.9862023,0.0799026502 130.487491,0.0799026502 195.674758,0.0799026502 C196.69873,0.0799026502 198.029079,-0.0998783128 198.774204,0.0799026502 C199.098592,0.158068286 198.978115,0.31830784 198.978115,0.691633715 C198.972847,68.1863011 198.984742,135.868566 198.978115,203.337744 C198.978115,203.450575 199.013969,203.631545 198.978115,203.745565 C198.900968,203.991107 199.021106,203.926366 198.692639,203.990258 C198.579979,204.012178 198.440639,203.990258 198.3256,203.990258 C132.265935,203.996545 66.1085621,203.98567 0.0833918324,203.990258 C-0.00361016519,204.009289 0.00573575251,203.931973 0.00182745965,203.867911 C0.00182745965,135.991932 0.00182745965,68.0710917 0.00182745965,0.202248863 C-0.00174098165,0.144304337 -0.00496957141,0.0868695873 0.042609646,0.0799026502 Z M98.7762828,157.37635 C103.52112,158.364976 108.367064,156.497667 113.131612,157.050094 C114.066204,157.158336 115.041578,157.245508 115.782455,157.539479 C116.429872,157.796236 116.765305,158.240591 117.250613,158.762941 C117.622921,159.163625 118.096164,159.553094 118.270168,160.067967 C118.432787,160.549026 118.366006,161.242151 118.392514,161.90316 C118.462354,163.649483 118.473399,165.465984 118.351732,167.164048 C118.179258,169.570869 118.225307,171.938608 117.821564,174.015435 C117.247894,176.965678 116.150004,179.73699 115.048375,182.294196 C114.672669,183.166252 114.330609,184.120723 113.82491,184.781902 C113.237816,185.549285 112.258024,185.963733 111.21485,186.413185 C108.456784,187.601473 105.235501,188.394684 102.161204,189.023238 C101.741488,189.10905 101.200784,189.082372 100.896957,189.186366 C99.673321,189.605232 98.9168114,190.725549 98.0829857,191.63329 C99.6369569,190.79097 102.111246,191.419354 103.466234,192.081893 C102.259251,192.737295 101.184301,193.524729 100.733828,194.936638 C100.883872,194.990674 100.917857,194.745302 101.019303,194.651163 C101.843783,193.88616 103.479319,194.487695 104.526571,194.569599 C106.112318,194.693475 107.946667,194.079875 109.094176,193.550047 C109.3822,193.416996 109.619756,193.221412 109.869038,193.183009 C111.195818,192.978759 112.471791,193.996101 113.45787,194.161779 C113.375966,194.707069 113.326857,195.496372 113.417088,196.078536 C115.451609,195.817361 117.154095,194.95533 118.555643,193.957868 C122.802598,190.935407 124.808912,185.503915 124.876882,178.379117 C125.285384,178.460001 125.381732,178.853039 125.814872,178.909284 C126.144868,178.586086 126.922449,178.640292 127.44616,178.542245 C127.620504,178.50962 128.259085,178.174867 128.261804,178.175207 C128.29324,178.178775 128.520261,178.445218 128.588061,178.501463 C129.038704,178.875469 129.396398,179.07802 129.893091,179.276323 C129.908554,177.34784 128.542521,176.772303 127.283031,176.299231 C125.978341,175.809167 124.569147,175.300411 123.979674,174.015435 C123.590204,173.166659 123.865144,172.248042 123.938892,171.323819 C124.094374,169.375965 123.958433,167.374755 124.102021,165.369636 C124.168971,164.435727 124.290808,163.503007 124.346714,162.555673 C124.409756,161.490072 124.26294,160.155649 124.428278,159.252326 C124.623013,158.188254 125.301866,156.677278 125.162357,155.541157 C125.023358,154.409115 124.181376,153.650568 124.305762,152.400938 C124.828283,151.951995 125.341459,151.560827 125.896437,151.136694 C126.41522,150.740258 126.979374,150.115952 127.568506,149.913231 C128.038181,149.751633 128.645496,149.724614 129.199794,149.627757 C133.025333,148.959441 136.875341,148.093332 140.863499,147.670218 C143.057071,147.43742 145.174346,146.898077 147.307085,146.365191 C149.405498,145.840972 151.536707,145.386761 153.424413,144.693126 C155.384506,143.972813 157.268304,143.323868 159.297047,142.817151 C161.348901,142.304656 163.518174,141.986386 165.944544,141.675253 C169.284435,141.247041 172.988817,141.030387 176.466348,140.574137 C177.647842,140.419165 178.88864,140.115849 179.932834,140.125534 C180.573794,140.131482 181.252137,140.300727 181.971943,140.370227 C183.497367,140.517382 184.77079,140.506507 186.335637,140.411009 C187.032842,140.368528 188.099127,140.428001 188.456311,140.207099 C188.688259,140.063682 188.621818,139.715675 188.782568,139.432239 C189.334147,139.212696 189.883687,138.197732 189.761341,137.433918 C189.725656,137.211146 189.355218,136.834591 189.19039,136.69984 C188.54892,136.175281 187.61059,135.793629 186.702677,135.394814 C184.122354,134.261412 180.928599,133.174061 178.1792,132.499287 C177.936716,131.627231 177.259731,131.189163 176.833388,130.500966 C177.305101,130.255424 177.875372,130.160265 177.934507,129.60376 C178.034253,128.665093 176.696087,127.900769 176.017744,127.483092 C173.480922,125.921479 170.002031,125.104988 167.045663,124.220527 C163.402624,123.130626 159.56519,122.104617 155.789779,121.202654 C155.21611,121.065524 154.566993,121.02814 154.11771,120.835615 C153.739625,120.673336 153.334182,120.160502 152.894244,119.816063 C152.452777,119.470265 151.976475,119.127696 151.589214,118.837293 C148.977115,116.878734 146.313699,114.894177 143.595906,113.209368 C142.662843,112.630942 141.880335,111.965684 141.148974,111.129312 C140.433417,110.311292 139.760511,109.502277 138.905954,108.845686 C137.628792,107.864367 136.199037,106.929099 134.827736,106.113287 C134.343957,105.825604 133.801554,105.610478 133.359577,105.297646 C132.881746,104.959494 132.543253,104.439013 132.095329,104.074184 C131.627523,103.693211 131.133379,103.356079 130.62717,103.01385 C127.637666,100.992249 124.328022,99.2387895 120.880228,97.6713985 C119.742235,97.153976 118.534402,96.6034181 117.250613,96.2848081 C114.609117,95.6290664 112.159467,94.4951549 109.624344,93.8378839 C105.586738,92.791144 100.945046,92.4208768 96.4924804,91.8803445 C91.9493448,91.3287669 87.7565962,90.5936701 83.3198342,89.9635871 C81.8219385,89.7508406 80.2487656,89.7608662 78.7522293,89.4742023 C76.7379292,89.0883019 74.769509,88.4210053 73.001941,87.6797911 C72.3606412,87.4107994 71.5752442,87.1103715 71.3298714,86.8233677 C71.1135559,86.5703489 70.969119,86.031006 70.799703,85.5999055 C70.6277381,85.1625178 70.4678379,84.7341361 70.3510989,84.2948793 C69.5714795,81.3600995 70.1468481,77.703477 70.5550099,74.7926567 C71.1448222,70.5864959 71.9614855,66.7108397 72.7164657,62.884292 C73.5016928,58.9041318 74.3322899,55.1221045 75.2041791,51.3021838 C76.4595907,45.8018719 77.0179668,38.5226121 76.4276447,31.9307001 C76.2361383,29.7930399 75.6845593,28.0219085 74.8371394,26.4659026 C73.2009241,23.4617933 70.7898473,21.0539518 67.7818212,19.4513864 C64.8823777,17.9065955 60.2683831,16.8275699 56.2404624,18.1463601 C52.8402477,19.2597106 50.3734352,21.5285532 48.5734114,24.5491452 C46.4496791,26.0947857 43.8593305,27.3642976 40.9471426,28.2603137 C40.2687989,28.468982 39.4997148,28.6846172 38.7449045,28.8720448 C37.9578083,29.0674589 37.1248321,29.1673749 36.4203199,29.4022117 C35.0230202,29.8679769 34.2080562,31.136979 34.2996462,32.9094698 C34.9010135,33.1036944 35.8685709,32.8821118 36.6242308,33.031816 C37.5092043,33.2071789 38.4332606,33.88705 39.4789839,33.9698036 C40.6349889,34.0613934 41.8625327,33.7144059 43.1493806,33.8882395 C44.2253506,34.0335256 45.0751495,34.5235902 46.085698,34.744663 C47.1404273,34.9752516 48.4638093,35.0094066 49.2259264,35.4379582 C49.8553315,35.7919126 50.2694406,36.3383923 50.9387782,36.6614203 C53.0103434,37.6612608 55.2042551,38.3236296 56.8114131,39.7200757 C57.9147411,40.6786242 58.7502662,41.7421867 59.3806908,43.0642055 C60.0145139,44.393701 60.073988,46.2630492 60.073988,48.3250926 C60.073818,56.267231 58.5878171,62.731869 56.3220268,68.3490895 C55.1918505,71.1509877 54.0010106,73.8509307 52.4477191,76.3423754 C50.8937479,78.8351795 49.5917766,81.4209327 48.3287183,84.131751 C47.0712675,86.8303346 45.8585073,89.5625634 44.7806681,92.4512934 C44.2309582,93.9247157 43.714044,95.4168297 43.3940737,97.0188854 C42.4537045,101.727685 42.0642346,108.42818 42.4968656,113.698752 C42.7874387,117.238296 44.1381787,119.883014 45.5147474,122.548462 C46.8823101,125.196238 48.4077338,127.620052 49.9600057,129.970799 C50.7613757,131.184405 51.5586675,132.326303 52.4885013,133.396493 C55.2348417,136.557443 58.5115205,139.231048 61.8684042,141.838381 C64.0991898,143.57128 66.4161277,145.284636 68.7605937,146.854576 C73.5686435,150.073811 79.1457774,152.23696 85.1958148,154.195349 C84.51985,158.118924 84.2573147,161.861019 82.9527945,164.961816 C81.6917753,167.959128 79.8202128,170.640719 78.01815,173.077448 C77.0036931,174.449085 76.3644323,175.676455 74.5924463,176.176885 C73.7365302,176.418519 72.7927624,176.518265 71.8192576,176.66627 C70.8768493,176.809517 69.9757329,177.003572 69.0052868,177.114873 C66.9733143,177.34801 64.9241794,177.21326 63.0510876,176.788616 C61.1640618,176.360744 59.4172248,176.775872 57.8717499,177.64504 C58.4856917,177.656425 58.9483996,177.818873 59.3399086,178.05286 C58.784931,178.291945 58.2884079,178.657285 57.6270568,178.82772 C56.9150678,179.011239 56.1563492,178.959922 55.4656009,179.194758 C54.1950659,179.626709 53.2801855,180.413463 52.8147588,181.478554 C53.1131485,181.222817 53.9090808,180.705224 54.4052641,180.744477 C54.698386,180.767757 55.1672112,181.178976 55.4656009,181.274644 C55.8972124,181.413303 56.4421643,181.377279 56.9337596,181.478554 C57.979143,181.69385 59.0809417,182.088076 59.7885127,182.661234 C60.6998246,183.39922 60.9871691,184.83152 61.3790179,186.005364 C60.3959973,186.721599 59.6580097,187.682867 59.1767799,188.900891 C59.8875794,188.08423 61.019455,187.9488 62.5617013,188.044468 C64.0290104,188.135548 65.5873997,187.957296 66.8846131,187.799775 C69.5065678,187.481505 71.7898605,186.528394 73.8991491,185.638326 C76.0453117,184.732624 78.1615673,183.736862 80.0980415,182.702017 C82.1278049,181.617553 83.1040285,179.636054 84.1354779,177.563476 C84.5492472,178.033319 84.9025229,178.563656 85.236597,179.113194 C86.0542798,179.006481 86.9117253,178.939531 87.6427459,178.746156 C87.9642455,178.997475 88.3032474,179.436052 88.5807362,179.724925 C88.6514254,179.798503 88.7630666,180.057469 88.8662115,179.928836 C89.105637,179.498415 88.9994333,179.067654 88.8662115,178.705374 C88.3944976,177.421758 87.0145304,176.282919 85.9298941,175.442808 C85.4821397,175.09599 85.0080468,174.82309 84.8695573,174.423256 C84.6314913,173.736078 84.959448,172.79928 85.236597,172.13946 C85.8194424,170.75202 86.2763728,169.591091 86.8678844,168.38751 C87.1661041,167.780876 87.5887095,167.299138 87.9282213,166.756227 C89.3379255,164.501318 90.0895072,161.646913 91.4354893,159.497018 C91.7507016,158.99336 92.2682955,158.579252 92.6181727,158.028864 C92.9884409,157.4467 93.2338138,156.857569 93.5969452,156.356799 C95.2649366,156.688493 96.969462,156.999966 98.7762828,157.37635 Z" id="Fill-1" fill="#FFFFFF" opacity="0"></path>
                <path d="M92.6201803,157.684108 C92.2702242,158.23313 91.7525135,158.64621 91.4372301,159.148619 C90.0909444,161.293178 89.3391931,164.140498 87.9291708,166.389811 C87.5895825,166.931374 87.1668818,167.411917 86.8685947,168.017045 C86.2769497,169.217638 85.8199162,170.375687 85.2369393,171.759683 C84.9597278,172.417866 84.631697,173.352339 84.8698168,174.037811 C85.0083375,174.436653 85.4825374,174.708876 85.9303928,175.054832 C87.0152738,175.892858 88.3955523,177.028871 88.8673727,178.309301 C89.0006246,178.670682 89.1068522,179.100374 88.8673727,179.529726 C88.7642045,179.65804 88.6525381,179.399717 88.581833,179.326322 C88.3042816,179.038166 87.9652032,178.600677 87.6436311,178.349982 C86.9124455,178.542877 86.0548066,178.609661 85.2369393,178.716109 C84.9027898,178.167935 84.5494344,177.638914 84.1355718,177.170237 C83.1038896,179.237672 82.1274458,181.214253 80.0972245,182.296024 C78.1603134,183.328301 76.0435804,184.321592 73.8969336,185.225046 C71.7871691,186.112905 69.5033613,187.063651 66.880815,187.381131 C65.583309,187.538261 64.0245681,187.71607 62.556928,187.625216 C61.0143337,187.529786 59.8822027,187.66488 59.1712428,188.479514 C59.6525812,187.264513 60.3907353,186.305631 61.3739777,185.591173 C60.9820405,184.420243 60.6946312,182.991497 59.7831136,182.255343 C59.0753831,181.683608 57.9733358,181.29036 56.9277165,181.075599 C56.4360103,180.974575 55.8909354,181.010509 55.4592266,180.872194 C55.1607696,180.776764 54.6918386,180.366565 54.3986505,180.343343 C53.9023553,180.304188 53.1062434,180.820496 52.8077864,181.075599 C53.2733181,180.01315 54.1884049,179.228349 55.4592266,178.797471 C56.1501307,178.563217 56.9090205,178.614407 57.6211701,178.431343 C58.2826704,178.261331 58.7793056,177.896899 59.3344084,177.658407 C58.9428111,177.425001 58.4799988,177.262955 57.8659184,177.251598 C59.411742,176.384588 61.1589731,175.970491 63.0464246,176.397301 C64.919939,176.82089 66.9695363,176.955306 69.0019671,176.722747 C69.9726322,176.611723 70.8739519,176.418149 71.8165729,176.275258 C72.7902973,176.12762 73.734278,176.028122 74.5903872,175.787088 C76.362773,175.2879 77.002178,174.063576 78.0168637,172.695343 C79.8193331,170.264662 81.6913179,167.589726 82.9526216,164.599853 C84.2574361,161.506752 84.5200306,157.773945 85.1961479,153.860108 C79.1447456,151.906579 73.5663534,149.748799 68.7572188,146.537554 C66.4122239,144.971511 64.0947633,143.262406 61.8634744,141.533809 C58.5058333,138.932947 55.2284153,136.265978 52.4814553,133.112872 C51.5514117,132.045339 50.7539401,130.906275 49.9523893,129.695681 C48.3997671,127.350769 46.8739993,124.93297 45.5061281,122.291765 C44.1292488,119.632933 42.7782041,116.994779 42.4875654,113.46402 C42.0548368,108.206528 42.4443946,101.522664 43.384976,96.8255511 C43.7050184,95.2274716 44.2220492,93.7390609 44.7718831,92.2692955 C45.8499655,89.3877351 47.0629994,86.6622874 48.3207338,83.9704014 C49.5840771,81.2663112 50.8863421,78.6869756 52.4406639,76.2003584 C53.9943059,73.7150973 55.1854144,71.0218552 56.3158457,68.2269111 C58.5821472,62.623632 60.0684834,56.1750388 60.0686533,48.252612 C60.0686533,46.1956864 60.0091659,44.3309778 59.3751998,43.0047819 C58.7446329,41.6860443 57.9089194,40.6251215 56.8053424,39.668952 C55.1978218,38.2759717 53.0034151,37.6152469 50.9313826,36.6178879 C50.261894,36.2956617 49.8476914,35.7505382 49.2181443,35.3974623 C48.4558553,34.9699744 47.1321748,34.9359042 46.0772075,34.7058878 C45.0664309,34.4853637 44.2164404,33.9965154 43.1402276,33.8515899 C41.8530894,33.6781878 40.6252687,34.024314 39.4690028,33.9329516 C38.4230436,33.8504034 37.4987788,33.1722196 36.6136057,32.997292 C35.8577753,32.8479593 34.8899996,33.068992 34.2884966,32.8752494 C34.196886,31.1071578 35.0120338,29.8413053 36.4096488,29.376696 C37.11432,29.1424421 37.9474841,29.042774 38.7347578,28.8478449 C39.4897384,28.6608825 40.258996,28.4457825 40.9374927,28.2376321 C43.8503377,27.3438399 46.4412707,26.0774788 48.5654821,24.5356745 C50.365912,21.5225792 52.833281,19.2593678 56.2342629,18.1487805 C60.2630923,16.8332634 64.8781279,17.9096109 67.7782255,19.4505678 C70.7869303,21.0491558 73.1985511,23.4510212 74.8351355,26.4476746 C75.6827465,27.9998186 76.2344501,29.7665542 76.4259996,31.8989089 C77.0164549,38.4744604 76.4579529,45.7356537 75.202258,51.2223143 C74.3301721,55.0327543 73.4993875,58.8053949 72.7139834,62.7756767 C71.9588328,66.5927273 71.1419853,70.4587644 70.5520399,74.654486 C70.1437861,77.5580819 69.5682876,81.2056289 70.3480829,84.1331248 C70.4648483,84.5712915 70.6247845,84.99861 70.7967882,85.4349121 C70.9662424,85.8649427 71.1107119,86.4029469 71.3270762,86.6553377 C71.5725044,86.9416292 72.3580785,87.2413115 72.9995231,87.5096357 C74.7674898,88.2490102 76.7363541,88.9146506 78.7511087,89.2995932 C80.2479826,89.5855457 81.8215104,89.575545 83.3197441,89.7877635 C87.7575071,90.4162826 91.9512016,91.149555 96.4953621,91.6997636 C100.948932,92.2389544 105.591672,92.6083026 109.630189,93.6524445 C112.165883,94.3080843 114.616086,95.4391815 117.258178,96.0932958 C118.542257,96.4111149 119.750362,96.9603064 120.888612,97.4764448 C124.337184,99.0399456 127.647575,100.789053 130.637753,102.805637 C131.144076,103.147017 131.638332,103.483312 132.106243,103.863339 C132.554269,104.227263 132.892837,104.746452 133.370776,105.083764 C133.812853,105.39582 134.355378,105.610412 134.839266,105.897381 C136.210877,106.711168 137.640955,107.644116 138.918405,108.622999 C139.773154,109.27796 140.446212,110.084967 141.161931,110.900957 C141.893457,111.735253 142.676141,112.39886 143.609414,112.97585 C146.32782,114.656478 148.991838,116.63611 151.604526,118.589808 C151.991874,118.879489 152.468284,119.221208 152.909851,119.566148 C153.349888,119.909732 153.755422,120.421294 154.133592,120.58317 C154.582977,120.775217 155.23224,120.812508 155.806039,120.949297 C159.582302,121.849022 163.420601,122.872485 167.064462,123.95968 C170.021498,124.841946 173.501173,125.656411 176.038567,127.214149 C176.717064,127.630788 178.055531,128.393215 177.955762,129.329553 C177.896615,129.884677 177.326215,129.979599 176.854395,130.224532 C177.280835,130.911021 177.957972,131.348001 178.200511,132.217894 C180.95053,132.890992 184.145006,133.975646 186.725911,135.106234 C187.634029,135.504059 188.572571,135.884764 189.214185,136.408022 C189.37905,136.542438 189.749572,136.918058 189.785265,137.140277 C189.907639,137.902195 189.357975,138.91464 188.806271,139.133639 C188.645485,139.416371 188.711941,139.763514 188.47994,139.906575 C188.122676,140.12693 187.056151,140.067603 186.358788,140.109979 C184.793589,140.20524 183.519878,140.216088 181.99411,140.069298 C181.274142,139.999971 180.595645,139.831146 179.95454,139.825213 C178.910111,139.815552 177.669033,140.118115 176.487272,140.272703 C173.008957,140.72782 169.303739,140.943937 165.963095,141.371086 C163.536177,141.681447 161.366415,141.998927 159.314098,142.51015 C157.284897,143.015609 155.400675,143.662943 153.440139,144.381469 C151.552007,145.073382 149.420317,145.526465 147.321431,146.049384 C145.188211,146.580947 143.070458,147.118951 140.876391,147.351171 C136.887334,147.773235 133.036457,148.637195 129.210055,149.303852 C128.655632,149.400469 128.04818,149.42742 127.578399,149.588618 C126.989134,149.790836 126.424853,150.413592 125.905952,150.809044 C125.35085,151.232125 124.837558,151.622322 124.314918,152.07015 C124.190505,153.316679 125.032677,154.073343 125.171707,155.202576 C125.311248,156.335877 124.632241,157.843102 124.437462,158.904534 C124.272087,159.805614 124.418936,161.136726 124.35588,162.199683 C124.299961,163.144665 124.178097,164.07507 124.111131,165.006662 C123.967512,167.006804 124.103483,169.003047 123.947966,170.946066 C123.874201,171.867996 123.599199,172.784332 123.988757,173.631003 C124.578363,174.912788 125.987875,175.420282 127.292859,175.90913 C128.552633,176.381028 129.918975,176.955137 129.903508,178.878833 C129.406703,178.681022 129.048929,178.478974 128.598184,178.105896 C128.530368,178.049791 128.303296,177.784009 128.271853,177.78045 C128.269133,177.780111 127.630408,178.114033 127.456025,178.146577 C126.932196,178.244381 126.15444,178.190309 125.82437,178.512705 C125.391131,178.456599 125.294761,178.064538 124.886168,177.983854 C124.818182,185.090968 122.811416,190.50898 118.563503,193.52394 C117.161639,194.518926 115.458768,195.378817 113.423788,195.639344 C113.333537,195.058625 113.382657,194.271281 113.464579,193.727344 C112.478277,193.562078 111.202017,192.54726 109.874937,192.751004 C109.6256,192.789311 109.38799,192.98441 109.099901,193.117131 C107.952133,193.645643 106.117371,194.257721 104.531265,194.134153 C103.483777,194.052452 101.847872,193.452409 101.023206,194.215514 C100.921738,194.309419 100.887745,194.554182 100.737666,194.50028 C101.188241,193.091875 102.263434,192.306396 103.470689,191.652621 C102.115396,190.991726 99.640548,190.364902 98.0862262,191.205131 C98.9202401,190.299643 99.6769204,189.182106 100.900832,188.76428 C101.204728,188.660544 101.745554,188.687156 102.165365,188.601557 C105.240356,187.974563 108.462365,187.18332 111.221053,185.997982 C112.264463,185.549645 113.244476,185.136226 113.831702,184.370748 C114.337515,183.71121 114.679653,182.759108 115.055443,181.889216 C116.157321,179.338357 117.255459,176.573923 117.829258,173.631003 C118.233092,171.55933 118.187032,169.197468 118.359546,166.796619 C118.48124,165.10277 118.470192,163.290777 118.400337,161.548789 C118.373823,160.88942 118.440619,160.198015 118.277963,159.718151 C118.10392,159.204555 117.63057,158.816053 117.258178,158.416363 C116.772761,157.895309 116.437252,157.452058 115.789688,157.195938 C115.048645,156.902697 114.073051,156.815741 113.138248,156.707767 C108.372624,156.156711 103.525588,158.019386 98.7796798,157.033214 C96.9724514,156.657764 95.2675414,156.347064 93.5991736,156.016193 C93.2359603,156.51572 92.9905321,157.103389 92.6201803,157.684108 Z" id="Fill-2" fill="#E4C580"></path>
            </g>
        </g>
    </g>
</svg>